<mxfile host="app.diagrams.net" modified="2024-06-12T16:54:16.946Z" agent="Mozilla/5.0 (X11; Linux x86_64) AppleWebKit/537.36 (KHTML, like Gecko) Chrome/125.0.0.0 Safari/537.36" version="24.5.3" etag="5UMyNLXL9aoW-i-h0fgx" type="github">
  <diagram name="Page-1" id="ws5Gb1KaRCALiGO_EH2H">
    <mxGraphModel>
      <root>
        <mxCell id="0" />
        <mxCell id="1" parent="0" />
      </root>
    </mxGraphModel>
  </diagram>
</mxfile>
